<svg width="163" height="39" viewBox="0 0 163 39" fill="none" xmlns="http://www.w3.org/2000/svg">
<g clip-path="url(#clip0_992_1002)">
<path fill-rule="evenodd" clip-rule="evenodd" d="M2.3182 14.2974H0.8125V18.6407H2.3182C6.09692 18.6407 9.0866 21.8476 8.81876 25.6263L8.76809 32.1558H13.1259L13.1549 25.9376C13.6037 19.6469 8.63055 14.2974 2.32544 14.2974H2.3182Z" fill="white"/>
<path fill-rule="evenodd" clip-rule="evenodd" d="M22.2972 25.9376L22.3261 32.1558H26.6839L26.6333 25.6263C26.3654 21.8548 29.3479 18.6407 33.1338 18.6407H34.6468V14.2974H33.1338C26.8287 14.2974 21.8483 19.6469 22.3044 25.9376H22.2972Z" fill="white"/>
<path fill-rule="evenodd" clip-rule="evenodd" d="M30.8323 7.65919C30.8323 7.65919 30.7817 7.65919 30.7527 7.65919C30.4632 7.68091 30.1953 7.70263 29.9564 7.73882C24.672 8.45548 20.2201 11.6189 17.7226 16.0129C15.2252 11.6261 10.7877 8.46995 5.51781 7.74606C5.51781 7.74606 5.50333 7.74606 5.49609 7.74606C5.24996 7.71711 4.96765 7.68815 4.66361 7.66643C4.65637 7.66643 4.64913 7.66643 4.64189 7.66643C3.0059 7.53613 0.8125 7.53613 0.8125 7.53613V11.7999C0.8125 11.7999 2.1879 11.8216 3.33165 11.894L4.27995 11.9736C10.6502 12.5093 15.551 17.8444 15.551 24.2363V32.1485H19.8943V24.2363C19.8943 17.8444 24.7878 12.5165 31.1653 11.9736L32.0847 11.894C33.2357 11.8216 34.64 11.7999 34.64 11.7999V7.53613C34.64 7.53613 32.4611 7.53613 30.8323 7.65919Z" fill="white"/>
</g>
<circle cx="17.7267" cy="4.56658" r="4.56658" fill="white"/>
<path d="M157.674 32.1493V28.8471C156.479 31.2359 154.477 32.5007 151.877 32.5007C147.345 32.5007 144.289 28.9876 144.289 23.1207C144.289 17.1836 147.345 13.7408 151.877 13.7408C154.442 13.7408 156.479 14.9704 157.674 17.2539V7.13623H162.522V32.1493H157.674ZM153.388 17.0782C150.753 17.0782 149.102 19.0807 149.102 23.1207C149.102 27.0905 150.753 29.1632 153.388 29.1632C156.058 29.1632 157.674 27.0905 157.674 23.1207C157.674 19.1158 156.058 17.0782 153.388 17.0782Z" fill="white"/>
<path d="M126.483 39V35.7328H129.399C130.488 35.7328 131.12 35.3464 131.542 34.3627L132.139 32.7819L124.902 14.0923H129.961L134.669 27.3717L139.236 14.0923H144.119L135.828 35.5572C134.915 37.911 133.158 39 130.594 39H126.483Z" fill="white"/>
<path d="M111.512 32.1487V14.0914H116.395V18.1315C117.554 15.2156 119.627 13.5996 122.508 13.5996H122.894V18.0261C122.402 17.9207 121.946 17.8856 121.454 17.8856C119.276 17.8856 117.308 18.8692 116.395 20.8717V32.1487H111.512Z" fill="white"/>
<path d="M90.4297 32.1493V7.13623H95.3129V17.3593C96.5073 15.0055 98.5098 13.7408 101.074 13.7408C105.641 13.7408 108.663 17.1836 108.663 23.1207C108.663 28.9876 105.606 32.5007 101.074 32.5007C98.5449 32.5007 96.5073 31.2711 95.3129 28.9524V32.1493H90.4297ZM99.5637 29.1632C102.199 29.1632 103.85 27.0905 103.85 23.1207C103.85 19.0807 102.199 17.0782 99.5637 17.0782C96.9289 17.0782 95.2777 19.1158 95.2777 23.1207C95.2777 27.0905 96.8938 29.1632 99.5637 29.1632Z" fill="white"/>
<path d="M70.4696 39V35.7328H73.3854C74.4745 35.7328 75.1068 35.3464 75.5284 34.3627L76.1256 32.7819L68.8887 14.0923H73.9475L78.655 27.3717L83.222 14.0923H88.1052L79.8143 35.5572C78.9009 37.911 77.1444 39 74.5799 39H70.4696Z" fill="white"/>
<path d="M45.8848 32.1492V7.55762H50.9787V17.7455H60.991V7.55762H66.085V32.1492H60.991V21.4343H50.9787V32.1492H45.8848Z" fill="white"/>
<defs>
<clipPath id="clip0_992_1002">
<rect width="33.8275" height="24.6124" fill="white" transform="translate(0.8125 7.53613)"/>
</clipPath>
</defs>
</svg>
