<svg width="340" height="82" viewBox="0 0 340 82" fill="none" xmlns="http://www.w3.org/2000/svg">
<path d="M4.53749 59.3282C4.53749 59.2015 4.60122 59.1371 4.72776 59.1352C6.74881 59.1137 8.66306 59.1186 10.4705 59.1498C12.7267 59.1907 15.0762 59.3604 15.9333 61.8209C15.9988 62.0064 16.1908 62.1158 16.3838 62.0784L16.8783 61.9848C17.0183 61.9594 17.073 61.8766 17.0425 61.7361C16.7185 60.2655 16.5265 58.7675 16.4655 57.2422C16.4592 57.1035 16.3829 56.9776 16.2626 56.9083C16.1424 56.839 15.9952 56.8358 15.8722 56.8999C15.0152 57.3427 14.1016 57.5689 13.1305 57.5786C9.81268 57.6138 6.24444 57.6089 2.42491 57.564C1.75003 57.5562 0.995281 57.4987 0.160656 57.3914C0.0529627 57.3758 9.91507e-06 57.4217 9.91507e-06 57.5289V57.9297C9.91507e-06 58.0311 0.0493725 58.0887 0.148989 58.1024C1.409 58.2799 2.0399 59.1039 2.0417 60.5746C2.05785 67.3916 2.05695 73.4264 2.039 78.679C2.03272 80.0386 1.39913 80.765 0.137322 80.8587C0.059244 80.8648 -0.000887531 80.9299 9.91507e-06 81.0079L0.00538889 81.4409C0.00718379 81.5521 0.0637242 81.6018 0.175008 81.5902C2.68516 81.321 5.21507 81.3278 7.76471 81.6106C7.89305 81.6262 7.96126 81.5687 7.96934 81.438L7.98728 81.1191C7.99087 81.0531 7.96844 80.9883 7.92356 80.9389C7.87959 80.8895 7.81676 80.8596 7.75035 80.8558C5.28956 80.7271 4.59852 79.6943 4.56352 77.3215C4.52314 74.6513 4.51596 72.0796 4.54378 69.6064C4.54378 69.5459 4.5734 69.5156 4.63442 69.5156C6.51278 69.5117 8.51856 69.5137 10.6527 69.5215C11.2728 69.5244 11.9253 69.618 12.531 69.7527C13.3971 69.9437 13.8512 70.6157 13.8943 71.7685C13.8943 71.786 13.9032 71.7968 13.9203 71.8006C14.2461 71.8728 14.5674 71.8836 14.8833 71.8329C14.9165 71.8289 14.9299 71.8094 14.9236 71.7743C14.5575 69.7126 14.5566 67.5993 14.9209 65.4342C14.9407 65.327 14.8958 65.2733 14.7863 65.2733H14.1132C13.9921 65.2733 13.9212 65.3328 13.8997 65.4518C13.6044 67.0463 12.8407 67.7076 11.2145 67.8392C9.33614 67.9933 7.16971 68.0342 4.71609 67.9621C4.59673 67.9582 4.53749 67.8967 4.53749 67.7777V59.3282Z" fill="#3485B7"/>
<path d="M30.7161 71.3421C30.8507 71.3423 30.971 71.4281 31.015 71.5557C31.8101 73.8357 32.5963 76.0759 33.3726 78.276C33.552 78.7812 33.5969 79.2708 33.5072 79.7448C33.3438 80.6283 32.1 80.76 31.3712 80.8653C31.2582 80.8828 31.2034 80.9482 31.2079 81.0613L31.2196 81.43C31.2205 81.4801 31.2429 81.5273 31.2815 81.5601C31.3201 81.593 31.3703 81.6084 31.4215 81.6026C33.7952 81.3276 36.108 81.3217 38.3615 81.5851C38.4629 81.5987 38.5158 81.5539 38.5221 81.4505L38.5427 81.076C38.5481 80.9706 38.4997 80.9063 38.3965 80.8828C36.8717 80.5464 36.3135 78.8963 35.8244 77.5709C33.7064 71.8209 31.2788 65.1424 28.5425 57.5355C28.5012 57.4221 28.3845 57.3543 28.2643 57.3746C26.7602 57.6419 25.2067 57.6447 23.6039 57.3834C23.4531 57.36 23.3795 57.4233 23.3813 57.5736L23.384 57.8984C23.3858 58.0349 23.4558 58.111 23.5922 58.1266C24.4053 58.2231 25.1277 58.741 24.8971 59.6596C24.5893 60.8943 24.1217 62.0148 23.6855 63.1881C21.4599 69.178 19.1956 74.8188 16.8918 80.1105C16.7285 80.4889 16.6765 80.9327 16.7366 81.4417C16.751 81.547 16.8093 81.5919 16.9125 81.5763C18.5647 81.3247 20.2492 81.3305 21.9651 81.5938C22.0827 81.6134 22.1419 81.5636 22.1437 81.4446L22.1464 81.0643C22.1491 80.9644 22.0746 80.8787 21.9741 80.8653C21.4787 80.8029 21.1377 80.7249 20.9501 80.6313C19.2207 79.7565 19.7969 78.5393 20.365 76.9302C21.0147 75.0851 21.6869 73.2516 22.3833 71.4299C22.4067 71.3714 22.4497 71.3421 22.5126 71.3421H30.7161ZM23.0241 69.6569L26.6614 59.7035C26.6749 59.6654 26.7108 59.64 26.7521 59.64C26.7925 59.64 26.8284 59.6654 26.8427 59.7035L30.3742 69.6948C30.3841 69.7249 30.3796 69.7582 30.3607 69.7839C30.3419 69.8096 30.3123 69.8245 30.28 69.8236L23.1147 69.7856C23.0842 69.7855 23.0546 69.7702 23.0367 69.7446C23.0187 69.7191 23.0142 69.6863 23.0241 69.6569Z" fill="#3485B7"/>
<path d="M45.6935 60.3507C45.7051 60.1635 45.7473 60.1567 45.8191 60.3302C48.8112 67.5256 51.6561 74.5542 54.3538 81.416C54.3825 81.496 54.4391 81.5467 54.5234 81.5681C54.6383 81.5993 54.7514 81.5974 54.8627 81.5623C54.9524 81.533 55.0125 81.4735 55.0439 81.3839C57.5308 74.21 60.2976 66.9551 63.3444 59.6193C63.3615 59.5744 63.3722 59.5754 63.3767 59.6222C63.8093 65.5556 64.2338 71.6294 64.6493 77.8437C64.6807 78.3177 64.6269 78.8306 64.4887 79.3827C64.1988 80.5441 63.0922 80.6377 62.1069 80.8543C61.9875 80.8796 61.931 80.9527 61.9372 81.0737L61.9516 81.4306C61.9579 81.5593 62.0252 81.616 62.1535 81.6003C64.4555 81.3194 66.7377 81.3146 69.0028 81.5857C69.124 81.5993 69.1841 81.5457 69.1841 81.4248L69.1895 80.9976C69.1895 80.904 69.1276 80.8218 69.0378 80.7958C67.8379 80.4622 67.1873 79.5845 67.0859 78.1626C66.7081 72.8221 66.3051 67.1999 65.8779 61.2957C65.7729 59.8563 66.0098 58.4022 67.7267 58.1301C67.8586 58.1086 67.9555 57.9958 67.9555 57.8639L67.9519 57.58C67.9519 57.4104 67.8685 57.3391 67.7006 57.3665C65.8869 57.6473 64.4357 57.583 62.7243 57.3694C62.5816 57.3519 62.4838 57.4104 62.4317 57.5449L55.1086 76.612C55.0439 76.7777 54.9793 76.7777 54.9156 76.612L47.3753 57.4601C47.3475 57.3918 47.2774 57.3518 47.2057 57.3635C45.6028 57.6347 43.9668 57.6357 42.2993 57.3665C42.1216 57.3373 42.0364 57.4123 42.0417 57.5918L42.0507 57.9399C42.0561 58.0905 42.1647 58.2168 42.311 58.2442C43.6895 58.4929 43.9991 59.7744 44.017 60.9534C44.0502 63.1985 43.982 65.4669 43.8124 67.7587C43.475 72.2917 43.142 76.8528 42.8144 81.4423C42.8064 81.5555 42.8584 81.6023 42.9697 81.5827C44.4209 81.3116 45.9178 81.3194 47.4605 81.6062C47.4955 81.6132 47.5314 81.6037 47.5592 81.5805C47.5871 81.5573 47.6032 81.5228 47.6041 81.4863L47.6122 81.0679C47.6167 80.9293 47.5494 80.8553 47.4112 80.8455C46.1969 80.7577 45.2367 80.2838 44.9943 78.9584C44.8831 78.3527 44.8211 77.7003 44.8508 77.0859C45.0832 71.9581 45.3641 66.3796 45.6935 60.3507Z" fill="#3485B7"/>
<path d="M73.7808 80.8396C73.6363 80.8455 73.5663 80.9196 73.5699 81.0619L73.5788 81.4862C73.5806 81.5204 73.5959 81.5526 73.621 81.5748C73.647 81.597 73.6802 81.6073 73.7134 81.6033C75.9589 81.3243 78.0894 81.3234 80.106 81.6003C80.2349 81.6179 80.2993 81.5613 80.2993 81.4306L80.3022 81.024C80.3022 80.9186 80.2495 80.8611 80.1443 80.8513C78.5614 80.7314 78.1899 79.3709 78.1872 78.0631C78.1791 72.1083 78.1863 66.3573 78.207 60.8101C78.2132 59.4555 78.6584 58.2646 80.1267 58.1272C80.2437 58.1155 80.3022 58.052 80.3022 57.937L80.3052 57.5244C80.3052 57.4152 80.2505 57.3675 80.1413 57.3811C77.9584 57.6503 75.7928 57.6454 73.6434 57.3665C73.6255 57.3645 73.6138 57.3713 73.6084 57.3869C73.569 57.5059 73.5573 57.7039 73.5734 57.9809C73.5788 58.0648 73.6237 58.1096 73.7081 58.1155C75.2229 58.2442 75.6214 59.514 75.6214 60.7896C75.6268 66.643 75.625 72.5071 75.6151 78.382C75.6124 79.5816 75.056 80.7899 73.7808 80.8396Z" fill="#3485B7"/>
<path d="M89.8376 79.8775C89.7244 79.8736 89.6679 79.8161 89.6679 79.7049C89.6698 74.1382 89.6689 68.4866 89.6649 62.7502C89.663 61.6405 89.7303 60.6701 89.8669 59.8392C90.0306 58.8249 90.6109 58.2476 91.6076 58.1071C91.7383 58.0896 91.8017 58.0145 91.7978 57.8819L91.792 57.5278C91.7915 57.4856 91.7728 57.4454 91.7404 57.4175C91.7081 57.3896 91.6652 57.3765 91.6223 57.3815C89.4124 57.641 87.2805 57.639 85.2266 57.3757C85.1828 57.3698 85.1387 57.3832 85.1055 57.4123C85.0724 57.4415 85.0536 57.4837 85.0539 57.5278L85.0599 57.9345C85.0599 58.0418 85.1134 58.1003 85.2208 58.1101C86.8621 58.2505 87.1781 59.7601 87.1781 61.182C87.1742 66.9087 87.181 72.3779 87.1986 77.5896C87.2014 79.1344 86.9557 80.6236 85.171 80.8577C85.0852 80.8693 85.0442 80.9181 85.0481 81.0039L85.0657 81.4457C85.0696 81.5296 85.1144 81.5696 85.2002 81.5656C89.8132 81.3355 94.4807 81.277 99.2028 81.3901C99.708 81.4037 100.16 81.5774 100.557 81.9109C100.664 81.9994 100.81 82.0242 100.939 81.9757C101.068 81.9271 101.16 81.8129 101.181 81.6768C101.444 79.9136 101.806 78.1074 102.266 76.2584C102.278 76.2155 102.261 76.1911 102.216 76.1853L101.333 76.0653C101.274 76.0575 101.239 76.0819 101.227 76.1384C100.752 78.3893 99.2887 79.5986 96.8388 79.7664C94.6601 79.9145 92.3264 79.9517 89.8376 79.8775Z" fill="#3485B7"/>
<path d="M110.309 68.4705C108.279 65.7496 106.152 63.0228 104.481 60.1C103.638 58.6254 104.545 58.1544 105.944 58.093C106.073 58.0871 106.136 58.0198 106.134 57.8911L106.128 57.5751C106.126 57.4288 106.052 57.3634 105.906 57.3791C103.573 57.6424 101.116 57.6385 98.536 57.3674C98.4947 57.3632 98.4536 57.3768 98.4229 57.4046C98.3922 57.4325 98.3748 57.4722 98.3751 57.5137V57.932C98.3731 58.0295 98.4208 58.09 98.5184 58.1134C99.6594 58.3865 100.623 59.0623 101.409 60.1409C104.03 63.7416 106.396 67.0828 108.507 70.1645C108.573 70.2601 108.606 70.3654 108.606 70.4805C108.634 73.6384 108.627 76.3524 108.586 78.6228C108.56 79.9531 107.949 80.6933 106.751 80.8434C106.625 80.859 106.562 80.9312 106.564 81.06L106.57 81.4315C106.572 81.5505 106.632 81.6031 106.751 81.5895C108.887 81.3203 110.982 81.3203 113.036 81.5895C113.153 81.6051 113.213 81.5544 113.217 81.4373L113.232 81.1243C113.24 80.9761 113.169 80.8912 113.021 80.8698C111.824 80.6981 111.216 79.9569 111.198 78.6462C111.165 76.2413 111.159 73.536 111.178 70.5302C111.178 70.4288 111.208 70.3361 111.269 70.2523C113.369 67.271 116.011 64.6115 117.995 61.8174C118.935 60.4969 119.473 59.0779 119.61 57.5604C119.622 57.4161 119.556 57.3566 119.414 57.382C117.938 57.6355 116.514 57.6346 115.142 57.3791C115.1 57.3712 115.056 57.3826 115.024 57.4105C114.991 57.4383 114.972 57.4794 114.973 57.5225L114.979 57.9408C114.979 58.0227 115.039 58.0915 115.119 58.1017C116.746 58.3006 117.155 59.2047 116.415 60.65C114.938 63.5436 112.67 66.0743 110.479 68.4793C110.456 68.5032 110.425 68.516 110.392 68.5143C110.359 68.5126 110.329 68.4966 110.309 68.4705Z" fill="#3485B7"/>
<path d="M173.098 59.0694C173.098 58.9349 173.165 58.8676 173.3 58.8676C175.86 58.8646 178.54 58.6979 181.094 59.166C182.598 59.4381 183.347 60.3597 183.917 61.6616C183.971 61.7829 184.102 61.851 184.233 61.8255L184.745 61.7231C184.901 61.69 184.964 61.5953 184.933 61.4393C184.619 59.8808 184.434 58.419 184.38 57.0536C184.364 56.6479 184.17 56.527 183.798 56.6908C182.857 57.1004 181.946 57.3091 181.062 57.3169C177.249 57.3501 173.883 57.3461 170.965 57.3052C170.273 57.2954 169.513 57.2409 168.686 57.1413C168.602 57.1317 168.56 57.1687 168.56 57.2525L168.563 57.6797C168.563 57.7792 168.613 57.8367 168.712 57.8523C169.941 58.0357 170.563 58.8013 170.579 60.149C170.62 63.5955 170.627 69.6362 170.6 78.271C170.596 79.6929 169.963 80.4644 168.701 80.5852C168.601 80.595 168.553 80.6497 168.557 80.7491L168.572 81.1909C168.576 81.2923 168.63 81.3382 168.733 81.3284C170.044 81.1958 171.192 81.1266 172.179 81.1207C175.872 81.0992 179.444 81.0944 182.896 81.106C183.825 81.108 184.699 81.3099 185.518 81.7117C185.624 81.7631 185.749 81.7546 185.847 81.6895C185.945 81.6244 186 81.5124 185.992 81.3957C185.879 79.6305 186.018 77.8662 186.41 76.103C186.439 75.9724 186.388 75.908 186.255 75.91L185.693 75.9129C185.559 75.9129 185.465 75.9753 185.413 76.1002C184.681 77.8556 183.569 79.2336 181.568 79.4823C179.441 79.7486 176.937 79.5788 174.429 79.5408C173.183 79.5203 173.101 78.5256 173.101 77.5718C173.097 74.6362 173.095 71.7505 173.095 68.9145C173.095 68.8131 173.146 68.7604 173.247 68.7565C175.58 68.6961 177.722 68.7419 179.672 68.894C181.15 69.0081 181.568 69.6167 181.77 71.0123C181.791 71.1566 181.875 71.2287 182.022 71.2287H182.592C182.733 71.2307 182.792 71.1615 182.771 71.0211C182.447 68.9906 182.445 66.9211 182.765 64.8126C182.782 64.6976 182.733 64.641 182.615 64.6429L181.992 64.6459C181.852 64.6479 181.767 64.717 181.738 64.8536C181.372 66.5856 180.448 67.0391 178.774 67.1474C177.054 67.2566 175.215 67.3005 173.259 67.2791C173.152 67.2771 173.098 67.2234 173.098 67.1182V59.0694Z" fill="#3485B7"/>
<path d="M260.503 71.0677C262.67 71.9552 263.745 73.4161 263.73 75.4505C263.707 78.7097 260.418 80.1726 257.627 80.1843C254.324 80.1989 251.594 78.9701 250.816 75.4124C250.784 75.2632 250.64 75.1662 250.491 75.193L249.938 75.2955C249.846 75.312 249.784 75.3976 249.798 75.4885C250.133 77.6106 250.366 79.684 250.497 81.7086C250.505 81.8276 250.569 81.8861 250.69 81.8842L251.05 81.8783C251.136 81.8763 251.194 81.8344 251.226 81.7525C251.445 81.1762 252.01 80.8748 252.615 81.0445C256.073 82.0041 260.199 82.5191 263.315 80.3043C264.881 79.1925 265.783 77.6312 266.021 75.6202C266.433 72.1503 264.591 69.9238 261.448 68.8149C259.945 68.2825 258.481 67.8094 257.059 67.396C255.883 67.0527 254.858 66.5504 253.985 65.8891C252.709 64.9295 252.282 63.218 252.726 61.7171C253.204 60.1079 254.34 59.0771 256.132 58.6246C259.435 57.7878 262.72 58.7358 264.304 61.9658C264.348 62.0594 264.423 62.1101 264.526 62.1179C264.717 62.1315 264.911 62.1013 265.109 62.0272C265.215 61.9862 265.26 61.9083 265.243 61.7931L264.491 57.1325C264.47 57.0037 264.394 56.9482 264.266 56.9657C263.98 57.0027 263.727 57.1119 263.505 57.2934C263.411 57.3694 263.304 57.4133 263.183 57.4251C262.794 57.4602 262.329 57.4718 261.96 57.346C256.735 55.576 249.766 57.2027 250.275 64.1688C250.5 67.2584 253.104 68.7301 255.796 69.4849C257.571 69.9803 259.14 70.5079 260.503 71.0677Z" fill="#3485B7"/>
<path d="M224.04 58.8962C224.153 58.8981 224.209 58.9557 224.209 59.0688C224.231 68.2478 224.222 74.7497 224.183 78.5746C224.171 79.8484 223.588 80.5125 222.433 80.5672C222.283 80.5734 222.165 80.6978 222.167 80.848L222.17 81.1962C222.17 81.3229 222.234 81.3785 222.36 81.3629C224.42 81.0879 226.484 81.086 228.551 81.3571C228.672 81.3726 228.736 81.32 228.744 81.199L228.768 80.8363C228.777 80.69 228.709 80.6061 228.563 80.5847C227.512 80.4345 226.936 79.8444 226.837 78.8146C226.747 77.8803 226.702 76.9626 226.702 76.0614C226.704 70.3172 226.703 64.6492 226.699 59.0571C226.699 58.9518 226.752 58.8981 226.857 58.8962C229.569 58.8436 233.241 58.4164 234.095 61.8629C234.101 61.8863 234.116 61.897 234.139 61.8951L235.043 61.7751C235.106 61.7674 235.128 61.7332 235.111 61.6727C234.635 60.1006 234.415 58.5148 234.452 56.9155C234.456 56.8121 234.407 56.7614 234.303 56.7633L233.856 56.7692C233.735 56.7692 233.632 56.8131 233.548 56.9009C233.26 57.1973 232.907 57.3465 232.489 57.3485C227.644 57.3582 223.134 57.3592 218.958 57.3514C218.457 57.3514 217.861 57.2636 217.454 56.9389C217.216 56.7458 216.947 56.6931 216.646 56.7809C216.568 56.8023 216.529 56.853 216.529 56.933C216.535 58.4934 216.325 60.0119 215.897 61.4884C215.849 61.6581 215.911 61.7576 216.085 61.7868L216.608 61.8804C216.759 61.9056 216.904 61.8135 216.945 61.6668C217.846 58.4194 221.371 58.8464 224.04 58.8962Z" fill="#3485B7"/>
<path d="M277.328 58.9207C277.43 58.9246 277.481 58.9772 277.483 59.0786C277.52 65.4821 277.511 71.632 277.456 77.5283C277.442 78.9473 277.512 80.4804 275.666 80.6062C275.52 80.616 275.447 80.695 275.447 80.8432L275.45 81.1767C275.451 81.2357 275.477 81.2913 275.522 81.3298C275.566 81.3684 275.625 81.3861 275.684 81.3787C277.648 81.1094 279.701 81.1094 281.842 81.3787C281.965 81.3923 282.028 81.3376 282.03 81.2148L282.035 80.8519C282.037 80.7116 281.968 80.6316 281.828 80.6121C280.362 80.419 280.013 79.2985 280.008 78.0169C279.981 71.828 279.972 65.5153 279.982 59.0786C279.982 58.9772 280.031 58.9255 280.131 58.9237C281.396 58.8807 282.558 58.8954 283.612 58.9675C285.371 59.0874 286.811 59.9038 287.293 61.7177C287.338 61.8815 287.443 61.9469 287.609 61.9138L288.068 61.8201C288.152 61.8032 288.225 61.7516 288.269 61.6781C288.313 61.6046 288.325 61.5159 288.299 61.4339C287.882 60.0393 287.685 58.634 287.708 57.218C287.712 57.0185 287.593 56.837 287.41 56.7587C287.226 56.6804 287.013 56.7208 286.872 56.861C286.529 57.2004 286.106 57.371 285.604 57.373C280.947 57.3847 276.37 57.3808 271.872 57.3613C271.438 57.3593 271.043 57.2179 270.686 56.9371C270.435 56.7381 270.207 56.7908 269.914 56.782C269.793 56.778 269.735 56.8366 269.738 56.9575C269.799 58.4828 269.603 59.9827 269.151 61.4573C269.086 61.6621 269.16 61.784 269.37 61.823L269.82 61.9108C270.016 61.9479 270.14 61.8699 270.195 61.6768C270.681 59.9721 271.909 59.066 273.881 58.9587C275.024 58.8963 276.173 58.8836 277.328 58.9207Z" fill="#3485B7"/>
<path d="M141.305 80.6643C141.24 80.676 141.211 80.714 141.217 80.7784L141.255 81.3108C141.259 81.3498 141.279 81.3674 141.316 81.3635C142.888 81.2494 144.491 81.0943 146.083 81.2202C148.912 81.4484 151.94 81.7643 154.605 81.2348C161.2 79.9269 164.108 73.9439 163.532 67.6155C163.052 62.3492 160.088 58.5632 154.822 57.4106C151.758 56.7405 148.897 57.1238 145.857 57.3286C144.705 57.4046 143.247 57.3423 141.483 57.1413C141.418 57.1338 141.353 57.1545 141.305 57.1981C141.256 57.2418 141.228 57.3042 141.229 57.3695V57.6534C141.23 57.8035 141.341 57.9302 141.489 57.9518C142.712 58.1332 143.326 58.89 143.332 60.2222C143.356 65.6816 143.362 71.2434 143.35 76.9077C143.347 78.6689 143.461 80.2634 141.305 80.6643ZM161.015 67.75C161.425 72.5951 159.904 77.9257 154.722 79.5349C153.72 79.847 152.492 80.004 151.039 80.0059C149.572 80.0099 148.328 79.9475 147.308 79.8187C145.878 79.6373 145.848 78.4465 145.848 77.3377C145.841 71.1996 145.839 65.1579 145.843 59.2128C145.843 59.1113 145.893 59.0499 145.995 59.0285C148.31 58.535 150.5 58.4141 152.566 58.6656C157.642 59.2888 160.6 62.8406 161.015 67.75Z" fill="#3485B7"/>
<path d="M296.432 68.9336C296.432 68.8166 296.491 68.7571 296.611 68.7551C297.806 68.7453 299.036 68.7493 300.303 68.7668C302.243 68.7961 303.793 69.5626 304.952 71.0665C305.897 72.2933 306.727 73.8088 307.438 75.613C308.113 77.3236 308.785 79.0137 309.451 80.6833C309.556 80.9466 309.73 81.1476 309.969 81.286C310.062 81.3387 310.162 81.3552 310.268 81.3358C311.53 81.0979 312.801 81.1037 314.08 81.3534C314.125 81.3618 314.172 81.3499 314.208 81.3207C314.244 81.2915 314.265 81.2479 314.267 81.2011L314.276 80.8735C314.279 80.7488 314.193 80.6397 314.071 80.6131C312.444 80.2621 311.344 78.6704 310.668 77.0934C310.053 75.6559 309.452 74.2554 308.869 72.8921C307.927 70.69 306.499 69.1003 304.583 68.1232C304.411 68.0373 304.42 67.9749 304.61 67.9359C307.485 67.3478 309.502 65.4227 309.282 62.3594C309.1 59.8316 307.709 58.2176 305.109 57.5174C303.422 57.0629 301.644 56.8971 299.773 57.02C298.021 57.137 296.306 57.4208 294.521 57.3096C293.673 57.2589 292.847 57.1975 292.044 57.1254C291.891 57.1116 291.814 57.1809 291.812 57.333V57.6432C291.812 57.7993 291.889 57.8879 292.044 57.9094C293.292 58.0772 293.917 58.8242 293.922 60.1506C293.949 67.7594 293.949 73.8146 293.922 78.3164C293.914 79.6037 293.304 80.3605 292.09 80.5868C291.954 80.6122 291.887 80.6941 291.888 80.8326V81.1426C291.888 81.2021 291.914 81.2586 291.959 81.2977C292.004 81.3369 292.063 81.355 292.123 81.3474C294.199 81.0803 296.295 81.0793 298.406 81.3446C298.526 81.3602 298.592 81.3085 298.606 81.1895L298.643 80.8296C298.656 80.7285 298.585 80.6357 298.483 80.619C297.191 80.4044 296.526 79.6389 296.488 78.3222C296.413 75.8705 296.395 72.7409 296.432 68.9336ZM306.414 63.4625C305.97 67.6901 299.393 67.2718 296.569 67.2103C296.472 67.2083 296.423 67.1586 296.423 67.0611V59.1704C296.423 59.0677 296.493 58.9782 296.593 58.9539C299.987 58.1522 307.002 57.9123 306.414 63.4625Z" fill="#3485B7"/>
<path d="M208.945 75.6207C208.941 75.7592 208.899 75.7719 208.819 75.6587L195.627 57.2558C195.559 57.1603 195.467 57.1232 195.352 57.1446C193.792 57.4177 192.224 57.4158 190.648 57.1388C190.603 57.1311 190.557 57.1435 190.522 57.1728C190.487 57.2022 190.467 57.2453 190.466 57.2909V57.6626C190.465 57.7902 190.551 57.9024 190.674 57.9347C192.412 58.391 192.532 59.7837 192.564 61.2787C192.703 68.004 192.59 74.6601 192.228 81.2469C192.225 81.2865 192.241 81.3251 192.27 81.3514C192.299 81.3777 192.339 81.3888 192.377 81.3814C193.896 81.1065 195.392 81.1006 196.865 81.3639C196.909 81.3716 196.955 81.3595 196.99 81.3308C197.025 81.3022 197.045 81.2598 197.046 81.2147L197.055 80.8343C197.057 80.7399 196.988 80.6591 196.894 80.6471C195.961 80.53 195.06 80.451 194.665 79.4505C194.439 78.877 194.296 78.131 194.238 77.2123C194.162 76.0283 194.126 74.9692 194.132 74.0349C194.164 69.4396 194.212 64.7662 194.279 60.0149C194.282 59.8061 194.346 59.7856 194.469 59.9534C199.62 66.9478 204.681 74.0301 209.65 81.2001C209.723 81.3054 209.824 81.358 209.955 81.358H210.642C210.751 81.358 210.805 81.3044 210.803 81.1971C210.784 79.2798 210.736 77.2123 210.66 74.9946C210.554 71.9109 210.642 66.0164 210.923 57.3115C210.927 57.1885 210.868 57.1378 210.748 57.1593C209.298 57.4187 207.838 57.4109 206.368 57.1359C206.253 57.1144 206.195 57.1622 206.195 57.2793L206.189 57.6772C206.189 57.8 206.25 57.8702 206.371 57.8878C208.176 58.1482 208.814 58.8065 208.945 60.6555C208.99 61.2973 209.016 61.9087 209.024 62.49C209.079 66.8981 209.053 71.275 208.945 75.6207Z" fill="#3485B7"/>
<path d="M240.334 58.8636C240.587 59.4624 240.715 60.0963 240.717 60.7653C240.73 65.8443 240.729 71.451 240.711 77.5854C240.708 78.9165 240.503 80.5052 238.815 80.6223C238.673 80.634 238.602 80.711 238.602 80.8534V81.1723C238.602 81.3322 238.682 81.4025 238.841 81.383C240.93 81.1079 243.022 81.1041 245.117 81.3712C245.236 81.3869 245.302 81.3352 245.316 81.2162L245.354 80.8651C245.37 80.7344 245.312 80.6623 245.182 80.6486C243.332 80.4496 243.242 78.6416 243.23 77.1407C243.199 71.9953 243.196 66.843 243.221 61.684C243.23 60.186 243.213 58.1468 245.146 57.8923C245.275 57.8747 245.339 57.8005 245.337 57.6699L245.331 57.313C245.331 57.2057 245.277 57.1589 245.17 57.1725C242.972 57.432 240.833 57.4251 238.754 57.152C238.652 57.1403 238.602 57.1852 238.602 57.2867V57.7313C238.602 57.8043 238.654 57.8661 238.724 57.8776C239.374 57.98 240.056 58.2053 240.334 58.8636Z" fill="#3485B7"/>
<path d="M324.411 68.2044C322.356 65.5205 320.485 62.8707 318.803 60.2551C317.898 58.8566 318.106 57.9263 320.105 57.8824C320.14 57.8817 320.174 57.8667 320.199 57.8409C320.223 57.8152 320.237 57.7806 320.236 57.7449L320.233 57.2914C320.231 57.1978 320.185 57.1558 320.092 57.1656C317.633 57.4309 315.175 57.426 312.72 57.151C312.608 57.1393 312.553 57.189 312.553 57.3002V57.7332C312.553 57.8365 312.603 57.899 312.703 57.9204C314.419 58.3096 315.32 59.5881 316.272 60.9193C318.419 63.925 320.559 66.9551 322.69 70.0096C322.745 70.0876 322.774 70.1734 322.776 70.267C322.817 72.6993 322.813 75.1091 322.767 77.4965C322.741 78.9272 322.638 80.472 320.862 80.6359C320.736 80.6475 320.672 80.7167 320.672 80.8435V81.2268C320.672 81.3419 320.729 81.3916 320.844 81.376C322.998 81.1068 325.081 81.105 327.094 81.3702C327.24 81.3877 327.318 81.3234 327.325 81.1771L327.34 80.8582C327.344 80.7498 327.264 80.6569 327.155 80.6475C325.648 80.5129 325.321 79.328 325.3 78.0203C325.267 75.8961 325.265 73.3069 325.295 70.2524C325.295 70.1627 325.322 70.0827 325.376 70.0125C326.9 68.0288 328.693 65.8404 330.757 63.4472C332.152 61.8263 333.732 59.4594 333.695 57.3031C333.692 57.19 333.636 57.1441 333.524 57.1656C332.101 57.4269 330.7 57.4269 329.323 57.1656C329.282 57.1578 329.24 57.1686 329.208 57.1952C329.175 57.2218 329.156 57.2613 329.156 57.3031V57.7332C329.155 57.8424 329.209 57.901 329.321 57.9088C331.234 58.0491 331.111 59.4652 330.406 60.7379C328.884 63.4852 326.79 65.8492 324.659 68.2131C324.574 68.3087 324.491 68.3058 324.411 68.2044Z" fill="#3485B7"/>
<path d="M334.686 82H335.237V78.8695H336.227V78.3804H333.695V78.8695H334.686V82ZM336.614 82H337.163V79.7434H337.173L337.93 81.4812H338.387L339.144 79.7434H339.157V82H339.705V78.3804H339.186L338.169 80.7389L337.131 78.3804H336.614V82Z" fill="#5C636A"/>
<path d="M165.984 47.7823V11.414H147.585V47.7328C149.363 48.7031 152.922 49.6761 156.77 49.6761C160.054 49.6761 163.154 49 165.984 47.7823Z" fill="white"/>
<path d="M182.996 26.1516C182.996 11.7084 171.288 0 156.844 0C142.401 0 130.693 11.7084 130.693 26.1516C130.693 40.5947 142.401 52.3032 156.844 52.3032C171.288 52.3032 182.996 40.5947 182.996 26.1516ZM181.46 26.1516C181.46 39.7464 170.439 50.7672 156.844 50.7672C143.25 50.7672 132.229 39.7464 132.229 26.1516C132.229 12.5567 143.25 1.53598 156.844 1.53598C170.439 1.53598 181.46 12.5567 181.46 26.1516Z" fill="#5C636A"/>
<path d="M181.46 26.1515C181.46 12.5566 170.439 1.53589 156.844 1.53589C143.249 1.53589 132.229 12.5566 132.229 26.1515C132.229 39.7463 143.249 50.7671 156.844 50.7671C170.439 50.7671 181.46 39.7463 181.46 26.1515ZM180.322 26.1515C180.322 39.1178 169.811 49.6291 156.844 49.6291C143.878 49.6291 133.366 39.1178 133.366 26.1515C133.366 13.1851 143.878 2.67385 156.844 2.67385C169.811 2.67385 180.322 13.1851 180.322 26.1515Z" fill="white"/>
<path d="M167.531 47.0616C175.125 43.173 180.322 35.2692 180.322 26.1515C180.322 13.1851 169.811 2.67377 156.844 2.67377C143.878 2.67377 133.367 13.1851 133.367 26.1515C133.367 35.2692 138.564 43.173 146.158 47.0616V9.85406H167.531L167.531 47.0616C167.531 47.0616 167.531 47.0616 167.531 47.0616Z" fill="#002B4E"/>
<path d="M154.394 45.3147V15.7784L148.281 12.0688V20.6932V48.0202C148.281 48.0202 148.639 48.159 148.963 48.275C149.287 48.3911 149.577 48.4844 149.577 48.4844L154.394 45.3147Z" fill="#3486B8"/>
<path d="M147.585 47.7328V11.414H165.985V47.7837C166.51 47.5614 167.026 47.3204 167.531 47.0618V9.85419H146.158V47.0618C146.625 47.3008 147.101 47.5247 147.585 47.7328Z" fill="#3486B8"/>
<path d="M148.28 48.0184V20.6931V12.0688L154.393 15.7784V45.3146L149.368 48.4139C149.714 48.5299 150.063 48.6381 150.415 48.7382L155.089 45.7928V15.412L148.581 11.414H147.585V47.7328L147.585 47.733C147.815 47.8317 148.047 47.9269 148.28 48.0184Z" fill="#002B4E"/>
<path d="M155.219 31.7245H153.904C153.904 31.7245 153.773 31.8965 153.773 32.0867C153.773 32.277 153.904 32.4855 153.904 32.4855H155.219C155.289 32.8851 155.467 33.1688 155.676 33.1688H155.877V33.1687C156.143 33.1599 156.358 32.6871 156.358 32.105C156.358 31.5229 156.143 31.0501 155.877 31.0413L155.676 31.0412C155.467 31.0412 155.289 31.3249 155.219 31.7245Z" fill="#5C636A"/>
<path d="M188.054 41.7682C190.679 41.4975 193.109 41.4434 195.345 41.6058C197.466 41.758 199.42 41.8882 201.206 41.9965C210.293 42.5293 217.473 38.8709 220.208 29.8342C220.603 28.5216 220.854 27.128 220.959 25.6532C221.613 16.4946 218.183 9.05622 209.436 6.36693C204.732 4.92087 200.165 5.42829 195.355 5.80881C193.282 5.97125 190.88 5.89676 188.15 5.58561C187.863 5.55178 187.683 5.67688 187.612 5.9611L187.577 6.11331C187.486 6.48539 187.628 6.70356 188.003 6.76782C189.84 7.08246 190.763 8.26467 190.774 10.3145C190.814 18.9505 190.818 27.5763 190.784 36.1918C190.774 38.3178 190.494 40.1445 188.054 40.6113C187.92 40.6373 187.799 40.7112 187.714 40.8193C187.552 41.0223 187.497 41.2219 187.552 41.418C187.61 41.6423 187.823 41.7907 188.054 41.7682ZM217.016 27.2769C215.981 34.3906 211.267 39.3276 203.915 39.6929C201.51 39.8113 199.149 39.7335 196.832 39.4595C195.357 39.287 194.62 38.4498 194.62 36.9479C194.62 27.6456 194.62 18.2012 194.62 8.61476C194.62 8.4727 194.689 8.38816 194.828 8.36105C197.395 7.87392 199.851 7.64391 202.195 7.67101C213.764 7.81819 218.538 16.7839 217.016 27.2769Z" fill="#002B4E"/>
<path d="M241.731 42.44C250.673 43.3326 258.68 36.4633 259.615 27.097C260.55 17.7307 254.059 9.41414 245.116 8.52154C236.174 7.62903 228.167 14.4983 227.232 23.8646C226.297 33.2309 232.788 41.5474 241.731 42.44ZM243.171 40.2337C236.29 40.1136 230.827 33.4157 230.969 25.2735C231.037 21.3635 232.415 17.6365 234.8 14.9124C237.185 12.1884 240.381 10.6905 243.686 10.7482C246.99 10.8058 250.133 12.4144 252.421 15.22C254.709 18.0256 255.957 21.7984 255.888 25.7084C255.82 29.6184 254.442 33.3454 252.057 36.0694C249.672 38.7935 246.476 40.2914 243.171 40.2337Z" fill="#002B4E"/>
<path d="M279.776 42.44C288.718 43.3326 296.726 36.4633 297.66 27.097C298.595 17.7307 292.104 9.41414 283.161 8.52154C274.219 7.62903 266.212 14.4984 265.277 23.8646C264.341 33.2309 270.834 41.5474 279.776 42.44ZM281.222 40.2286C277.917 40.171 274.774 38.5624 272.487 35.7568C270.198 32.9512 268.951 29.1784 269.019 25.2683C269.087 21.3583 270.466 17.6313 272.85 14.9073C275.236 12.1834 278.431 10.6855 281.736 10.7431C288.617 10.8632 294.081 17.5612 293.938 25.7033C293.87 29.6134 292.492 33.3404 290.107 36.0644C287.723 38.7884 284.526 40.2863 281.222 40.2286Z" fill="#002B4E"/>
<path d="M309.709 25.0115C309.713 24.8186 309.811 24.7188 310.004 24.7121C312.602 24.6174 314.749 24.6867 316.448 24.9201C319.756 25.3717 322.07 28.6191 323.419 31.6178C324.708 34.4863 325.968 37.5899 327.2 40.9285C327.389 41.4348 327.913 41.7351 328.448 41.644C330.068 41.3598 331.698 41.3784 333.339 41.6998C333.422 41.7161 333.507 41.6958 333.573 41.6442C333.64 41.5926 333.68 41.5147 333.684 41.4309L333.694 41.1975C333.711 40.8727 333.561 40.6698 333.243 40.5886C330.995 40.0102 329.483 37.5696 328.645 35.4943C327.215 31.9324 325.484 26.6807 321.923 24.6106C321.55 24.3941 321.165 24.1624 320.766 23.9154C320.505 23.7565 320.525 23.6466 320.827 23.5856C324.556 22.8246 327.052 20.4246 326.966 16.4719C326.89 12.8796 324.896 10.51 321.517 9.62712C318.651 8.87623 316.026 8.65806 313.642 8.97261C310.557 9.37853 307.288 9.40895 303.834 9.06397C303.74 9.05392 303.647 9.08273 303.575 9.14331C303.504 9.20388 303.462 9.29094 303.458 9.38364L303.449 9.58655C303.428 9.92148 303.583 10.1194 303.915 10.1802C305.478 10.4745 306.261 11.4081 306.264 12.9811C306.271 20.45 306.273 28.6326 306.269 37.529C306.266 39.2102 305.486 40.2368 303.931 40.6089C303.71 40.6622 303.559 40.8646 303.57 41.0909L303.581 41.2888C303.597 41.5696 303.742 41.693 304.017 41.6592C306.732 41.3514 309.527 41.3548 312.399 41.6693C312.545 41.6826 312.678 41.5835 312.703 41.441L312.739 41.2736C312.799 40.9455 312.667 40.7476 312.343 40.6799C310.689 40.318 309.833 39.3438 309.776 37.7573C309.674 34.9632 309.652 30.7146 309.709 25.0115ZM323.14 16.5329C323.622 23.1392 314.028 22.8043 310.014 22.6419C309.801 22.6352 309.694 22.5252 309.694 22.3121V11.9104C309.694 11.7041 309.795 11.5773 309.999 11.5299C314.292 10.5506 322.674 10.0686 323.14 16.5329Z" fill="#002B4E"/>
<path d="M15.8823 42.5702C25.6196 43.5421 34.3383 36.0595 35.3569 25.8573C35.846 20.9581 34.4577 16.0741 31.497 12.2798C28.5363 8.48547 24.2456 6.09162 19.5699 5.62495C9.83354 4.6531 1.11485 12.1357 0.0962507 22.3378C-0.392857 27.2371 0.995492 32.1211 3.95617 35.9154C6.91684 39.7097 11.2066 42.1035 15.8823 42.5702ZM17.4511 40.1847C9.94931 40.0537 3.99386 32.7474 4.14912 23.8655C4.30348 14.9836 10.5102 7.88957 18.012 8.0205C25.5137 8.15144 31.4692 15.4577 31.3139 24.3397C31.1587 33.2215 24.9519 40.3156 17.4511 40.1847Z" fill="#002B4E"/>
<path d="M76.6117 12.3896C76.6117 12.1738 76.7193 12.0626 76.9356 12.056C79.7841 11.9763 82.6737 12.0493 85.6051 12.275C86.8003 12.3647 87.8793 12.6634 88.842 13.1714C89.8081 13.6794 90.2811 14.8147 90.7742 15.7261C90.8538 15.8721 90.9766 15.9634 91.1427 15.9999C91.4281 16.0597 91.697 16.0182 91.9494 15.8754C92.1352 15.7725 92.2083 15.6165 92.1684 15.4073C91.7734 13.3623 91.5294 11.4584 91.4364 9.69559C91.4065 9.13451 91.136 8.97019 90.6247 9.20253C89.4396 9.74037 88.3042 10.0242 87.0095 10.0342C82.3185 10.0674 77.6258 10.0591 72.9321 10.0092C72.2411 10.0026 71.5357 9.93126 70.815 9.79512C70.7388 9.78058 70.6589 9.80032 70.5979 9.84906C70.5368 9.89788 70.5 9.97093 70.4965 10.0491L70.4866 10.2732C70.4704 10.5787 70.6113 10.7612 70.9102 10.821C72.3874 11.1098 73.1439 12.0343 73.1807 13.5947C73.2803 17.7512 73.2938 25.7718 73.2202 37.6568C73.2103 39.5258 72.3604 40.5749 70.6706 40.8039C70.5009 40.8299 70.3816 40.9842 70.4022 41.1525L70.4274 41.3517C70.4668 41.6771 70.649 41.8198 70.9748 41.7799C72.0374 41.6405 73.0775 41.5691 74.097 41.5658C79.601 41.5393 84.9694 41.5343 90.2014 41.5509C91.1575 41.5559 91.9593 41.8945 92.8556 42.1933C93.3536 42.3626 93.5894 42.185 93.5628 41.6604C93.4466 39.5856 93.6242 37.3231 94.0956 34.8731C94.1241 34.7215 94.0306 34.5736 93.8815 34.5345C93.2639 34.3801 92.786 34.7735 92.5469 35.3213C91.375 38.0103 89.3964 39.3731 86.6111 39.4096C83.8225 39.4461 81.0886 39.4428 78.4092 39.3997C77.2111 39.3797 76.6117 38.7722 76.6117 37.5771V25.5012C76.6117 25.3286 76.6978 25.2406 76.871 25.2373C79.4772 25.2174 81.9832 25.2273 84.3901 25.2672C86.387 25.2971 87.7116 25.7751 87.9307 28.0011C87.9539 28.2334 88.0817 28.3496 88.3142 28.3496H89.0512C89.2735 28.3496 89.3648 28.2401 89.3251 28.021C88.8702 25.3319 88.8669 22.7159 89.3151 20.1729C89.3781 19.8044 89.2237 19.6218 88.8519 19.6251L88.4586 19.6301C88.1133 19.6335 87.9141 19.8044 87.861 20.143C87.6485 21.5573 86.9397 22.4138 85.7346 22.7126C84.0614 23.1309 81.1184 23.2537 76.906 23.0811C76.7095 23.0711 76.6117 22.9682 76.6117 22.7724V12.3896Z" fill="#002B4E"/>
<path d="M47.7671 27.4176C47.7707 27.1984 47.8811 27.0922 48.101 27.0988C53.8868 27.2682 63.8862 28.0051 65.0519 19.9878C65.5599 16.4887 64.6086 13.8295 62.1981 12.0102C57.8158 8.70871 51.8855 9.625 46.7665 10.0631C46.0485 10.1229 44.46 10.0383 42.0001 9.80925C41.7614 9.786 41.6232 9.89388 41.5873 10.1329C41.5801 10.176 41.5739 10.2192 41.5676 10.2624C41.5425 10.3946 41.573 10.5313 41.651 10.641C41.7282 10.7508 41.8476 10.8243 41.9804 10.845C43.4881 11.0807 44.2581 12.0518 44.2913 13.7582C44.3972 18.9969 44.4125 26.8864 44.3362 37.4268C44.3191 39.4984 43.4791 40.6354 41.8162 40.8379C41.6304 40.8591 41.4949 41.0229 41.5128 41.2064L41.5326 41.4006C41.5586 41.7027 41.7228 41.8372 42.0253 41.804C44.7311 41.4853 47.4468 41.4687 50.1723 41.7542C50.3778 41.7774 50.481 41.6845 50.481 41.4753V41.1218C50.481 40.8761 50.3599 40.7483 50.1175 40.7383C48.5273 40.6653 47.7267 39.6643 47.7169 37.7355C47.7007 34.1734 47.7169 30.734 47.7671 27.4176ZM48.0014 25.1368C47.8219 25.1368 47.7321 25.0472 47.7321 24.8679V12.6626C47.7321 12.4601 47.83 12.3373 48.0256 12.2941C51.452 11.5421 54.9027 11.3131 57.946 12.822C60.422 14.047 61.569 16.0887 61.3868 18.947C60.9587 25.6896 52.8467 25.1567 48.0014 25.1368Z" fill="#002B4E"/>
<path d="M123.199 34.0722L106.039 10.1247C105.855 9.86889 105.542 9.74101 105.232 9.79602C103.3 10.1346 101.406 10.1313 99.55 9.78606C99.4105 9.75976 99.2699 9.82608 99.2014 9.95038C99.1218 10.103 99.0935 10.2707 99.1168 10.4533C99.15 10.6691 99.2678 10.8169 99.4703 10.8965C100.616 11.3298 101.388 11.7381 101.582 13.1324C101.758 14.4105 101.849 15.6687 101.856 16.907C101.892 23.135 101.831 29.197 101.671 35.093C101.618 37.1347 101.507 39.2345 101.338 41.3924C101.329 41.5056 101.372 41.6168 101.456 41.6937C101.539 41.7706 101.654 41.8046 101.766 41.7858C103.682 41.477 105.554 41.477 107.383 41.7858C107.609 41.8223 107.738 41.7277 107.772 41.5019L107.786 41.3675C107.824 41.1198 107.664 40.8842 107.418 40.8247C106.223 40.5508 105.122 40.5856 104.614 39.2063C104.246 38.207 104.053 37.148 104.037 36.0292C103.93 28.6957 103.959 21.3008 104.121 13.8445C104.131 13.4361 104.258 13.3963 104.5 13.7249C111.083 22.6984 117.65 31.8927 124.2 41.3077C124.588 41.8605 125.026 41.9053 125.634 41.8107C125.83 41.7775 125.926 41.6613 125.923 41.4621C125.85 37.0135 125.765 32.565 125.669 28.1164C125.654 27.4442 125.813 26.7071 125.803 26.1245C125.717 20.5672 125.835 15.1907 126.157 9.99516C126.167 9.83254 126.09 9.76443 125.928 9.79099C123.976 10.1097 122.1 10.1047 120.301 9.7761C120.172 9.7533 120.04 9.78633 119.937 9.86683C119.834 9.94742 119.769 10.0681 119.758 10.1993L119.743 10.4135C119.728 10.6028 119.866 10.7709 120.057 10.7969C123.263 11.2053 123.507 13.1225 123.517 15.9161C123.537 22.1607 123.544 28.1762 123.537 33.9626C123.537 34.351 123.424 34.3875 123.199 34.0722Z" fill="#002B4E"/>
<path d="M332.095 50.4377H332.895C333.337 50.4377 333.695 50.0797 333.695 49.6375C333.695 49.1954 333.337 48.8374 332.895 48.8374H332.095V50.4377Z" fill="#5C636A"/>
<path d="M178.446 50.4377H177.646C177.204 50.4377 176.846 50.0797 176.846 49.6375C176.846 49.1954 177.204 48.8374 177.646 48.8374H178.446V50.4377Z" fill="#5C636A"/>
<path d="M1.60063 48.8374H0.800116C0.358572 48.8374 0.000488281 49.1954 0.000488281 49.6375C0.000488281 50.0797 0.358572 50.4377 0.800116 50.4377H1.60063V48.8374Z" fill="#5C636A"/>
<path d="M135.242 50.4377H136.042C136.485 50.4377 136.843 50.0797 136.843 49.6376C136.843 49.1954 136.485 48.8375 136.042 48.8375H135.242V50.4377Z" fill="#5C636A"/>
<path d="M1.49658 50.4377H135.508V48.8375L1.49658 48.8375C1.49658 50.0447 1.49658 50.4377 1.49658 50.4377Z" fill="#5C636A"/>
<path d="M178.227 50.4377H332.356V48.8374L178.227 48.8374C178.227 50.0446 178.227 50.4377 178.227 50.4377Z" fill="#5C636A"/>
</svg>
