<svg xmlns="http://www.w3.org/2000/svg" viewBox="0 0 260 56" aria-label="Denterra">
  <text x="0" y="42" font-family="Inter, -apple-system, 'Segoe UI', sans-serif" font-weight="700" font-size="42" letter-spacing="-1.6" fill="#FFFFFF">Denterra</text>
  <g transform="translate(214 4)">
    <circle cx="24" cy="10" r="7.5" fill="#7BE8C7"/>
    <path fill="#7BE8C7" fill-rule="evenodd" d="
      M6 24
      Q6 20 10 20
      L22 22
      Q23 22 24 24
      L24 30
      L25 30
      Q26 22 27 22
      L39 20
      Q43 20 43 24
      L43 38
      L24 52
      L6 38
      Z
      M12 28
      L12 35
      L24 46
      L36 35
      L36 28
      Q30 29 25 32
      L24 33
      L23 32
      Q18 29 12 28
      Z
    "/>
  </g>
</svg>
